<?xml version="1.0" encoding="UTF-8" standalone="no"?>
<svg
   xmlns:dc="http://purl.org/dc/elements/1.1/"
   xmlns:cc="http://creativecommons.org/ns#"
   xmlns:rdf="http://www.w3.org/1999/02/22-rdf-syntax-ns#"
   xmlns:svg="http://www.w3.org/2000/svg"
   xmlns="http://www.w3.org/2000/svg"
   version="1.1"
   id="svg3778"
   height="500"
   width="500">
  <defs
     id="defs3780" />
  <metadata
     id="metadata3783">
    <rdf:RDF>
      <cc:Work
         rdf:about="">
        <dc:format>image/svg+xml</dc:format>
        <dc:type
           rdf:resource="http://purl.org/dc/dcmitype/StillImage" />
        <dc:title></dc:title>
      </cc:Work>
    </rdf:RDF>
  </metadata>
  <g
     style="display:inline"
     id="layer2">
    <g
       id="g2991"
       transform="matrix(-0.22087264,0,0,-0.06512356,461.8075,112.57142)">
      <path
         style="fill:currentColor"
         id="path2993"
         d="M 1920,384 Q 1920,225 1807.5,112.5 1695,0 1536,0 L 448,0 Q 263,0 131.5,131.5 0,263 0,448 0,580 71,689.5 142,799 258,853 q -2,28 -2,43 0,212 150,362 150,150 362,150 158,0 286.5,-88 128.5,-88 187.5,-230 70,62 166,62 106,0 181,-75 75,-75 75,-181 0,-75 -41,-138 129,-30 213,-134.5 84,-104.5 84,-239.5 z" />
    </g>
  </g>
  <g
     style="display:inline"
     transform="translate(410.03579,-34.618756)"
     id="layer1">
    <path
       id="path3520"
       style="fill:#000000;fill-opacity:1;fill-rule:nonzero;stroke:none"
       d="m -278.02285,286.11227 0,61.23378 235.974119,0 0,-61.23378 -235.974119,0 z" />
    <path
       id="path3522"
       style="fill:#000000;fill-opacity:1;fill-rule:nonzero;stroke:none"
       d="m -282.50337,347.34605 4.48052,2.98701 235.974119,0 0,-7.46753 -235.974119,0 2.98702,4.48052 -7.46754,0 0,2.98701 4.48052,0 -4.48052,-2.98701" />
    <path
       id="path3524"
       style="fill:#000000;fill-opacity:1;fill-rule:nonzero;stroke:none"
       d="m -278.02285,283.12525 -4.48052,2.98702 0,61.23378 7.46754,0 0,-61.23378 -2.98702,4.48052 0,-7.46754 -4.48052,0 0,2.98702 4.48052,-2.98702" />
    <path
       id="path3526"
       style="fill:#000000;fill-opacity:1;fill-rule:nonzero;stroke:none"
       d="m -39.061721,286.11227 -2.98701,-2.98702 -235.974119,0 0,7.46754 235.974119,0 -2.98702,-4.48052 5.97403,0 0,-2.98702 -2.98701,0 2.98701,2.98702" />
    <path
       id="path3528"
       style="fill:#000000;fill-opacity:1;fill-rule:nonzero;stroke:none"
       d="m -42.048731,350.33306 2.98701,-2.98701 0,-61.23378 -5.97403,0 0,61.23378 2.98702,-4.48052 0,7.46753 2.98701,0 0,-2.98701 -2.98701,2.98701" />
    <path
       id="path3530"
       style="fill:#000000;fill-opacity:1;fill-rule:evenodd;stroke:none"
       d="m -86.853941,286.11227 -25.389619,-74.67536 46.298709,0 -20.90909,74.67536" />
    <path
       id="path3532"
       style="fill:#000000;fill-opacity:1;fill-rule:nonzero;stroke:none"
       d="m -112.24356,208.4499 -4.48053,4.48052 25.389619,74.67535 7.46754,-1.4935 -25.389619,-74.67536 -2.98701,4.48053 0,-7.46754 -5.97403,0 1.4935,4.48052 4.48053,-4.48052" />
    <path
       id="path3534"
       style="fill:#000000;fill-opacity:1;fill-rule:nonzero;stroke:none"
       d="m -62.957831,212.93042 -2.98702,-4.48052 -46.298709,0 0,7.46754 46.298709,0 -4.48052,-4.48053 7.46754,1.49351 1.4935,-4.48052 -4.48052,0 2.98702,4.48052" />
    <path
       id="path3536"
       style="fill:#000000;fill-opacity:1;fill-rule:nonzero;stroke:none"
       d="m -91.334471,287.60577 7.46754,0 20.9091,-74.67535 -7.46754,-1.49351 -20.9091,74.67536 7.46754,0 -7.46754,1.4935 4.48053,10.45455 2.98701,-10.45455 -7.46754,0" />
    <path
       id="path3538"
       style="fill:#000000;fill-opacity:1;fill-rule:evenodd;stroke:none"
       d="m -136.13968,286.11227 23.89612,-74.67536 -47.79223,0 23.89611,74.67536" />
    <path
       id="path3540"
       style="fill:#000000;fill-opacity:1;fill-rule:nonzero;stroke:none"
       d="m -112.24356,215.91744 -4.48053,-4.48053 -23.89611,74.67536 7.46754,1.4935 23.89611,-74.67535 -2.98701,-4.48052 2.98701,4.48052 1.49351,-4.48052 -4.48052,0 0,7.46754" />
    <path
       id="path3542"
       style="fill:#000000;fill-opacity:1;fill-rule:nonzero;stroke:none"
       d="m -155.55527,211.43691 -4.48052,4.48053 47.79223,0 0,-7.46754 -47.79223,0 -2.98701,4.48052 2.98701,-4.48052 -4.48052,0 1.49351,4.48052 7.46753,-1.49351" />
    <path
       id="path3544"
       style="fill:#000000;fill-opacity:1;fill-rule:nonzero;stroke:none"
       d="m -140.6202,286.11227 7.46754,0 -22.40261,-74.67536 -7.46753,1.49351 22.4026,74.67535 7.46754,0 -7.46754,0 4.48052,10.45455 2.98702,-10.45455 -7.46754,-1.4935" />
    <path
       id="path3546"
       style="fill:#000000;fill-opacity:1;fill-rule:evenodd;stroke:none"
       d="m -182.4384,286.11227 -25.38962,-74.67536 47.79223,0 -22.40261,74.67536" />
    <path
       id="path3548"
       style="fill:#000000;fill-opacity:1;fill-rule:nonzero;stroke:none"
       d="m -207.82802,208.4499 -2.98701,4.48052 23.89611,74.67535 7.46754,-1.4935 -23.89611,-74.67536 -4.48053,4.48053 0,-7.46754 -4.48052,0 1.49351,4.48052 2.98701,-4.48052" />
    <path
       id="path3550"
       style="fill:#000000;fill-opacity:1;fill-rule:nonzero;stroke:none"
       d="m -155.55527,212.93042 -4.48052,-4.48052 -47.79223,0 0,7.46754 47.79223,0 -2.98701,-4.48053 7.46753,1.49351 0,-4.48052 -4.48052,0 4.48052,4.48052" />
    <path
       id="path3552"
       style="fill:#000000;fill-opacity:1;fill-rule:nonzero;stroke:none"
       d="m -186.91892,287.60577 7.46754,0 23.89611,-74.67535 -7.46753,-1.49351 -23.89612,74.67536 7.46754,0 -7.46754,1.4935 4.48052,10.45455 2.98702,-10.45455 -7.46754,0" />
    <path
       id="path3554"
       style="fill:#000000;fill-opacity:1;fill-rule:evenodd;stroke:none"
       d="m -230.23062,286.11227 22.4026,-74.67536 -44.80521,0 22.40261,74.67536" />
    <path
       id="path3556"
       style="fill:#000000;fill-opacity:1;fill-rule:nonzero;stroke:none"
       d="m -207.82802,215.91744 -2.98701,-4.48053 -22.40261,74.67536 7.46754,1.4935 22.40261,-74.67535 -4.48053,-4.48052 4.48053,4.48052 0,-4.48052 -4.48053,0 0,7.46754" />
    <path
       id="path3558"
       style="fill:#000000;fill-opacity:1;fill-rule:nonzero;stroke:none"
       d="m -249.64621,211.43691 -2.98702,4.48053 44.80521,0 0,-7.46754 -44.80521,0 -4.48052,4.48052 4.48052,-4.48052 -4.48052,0 0,4.48052 7.46754,-1.49351" />
    <path
       id="path3560"
       style="fill:#000000;fill-opacity:1;fill-rule:nonzero;stroke:none"
       d="m -233.21764,286.11227 7.46754,0 -23.89611,-74.67536 -7.46754,1.49351 23.89611,74.67535 7.46754,0 -7.46754,0 2.98702,10.45455 4.48052,-10.45455 -7.46754,-1.4935" />
    <path
       id="path3562"
       style="fill:#000000;fill-opacity:1;fill-rule:evenodd;stroke:none"
       d="m -276.52934,286.11227 -23.89611,-74.67536 47.79222,0 -23.89611,74.67536" />
    <path
       id="path3564"
       style="fill:#000000;fill-opacity:1;fill-rule:nonzero;stroke:none"
       d="m -300.42545,208.4499 -2.98702,4.48052 22.40261,74.67535 7.46753,-1.4935 -22.4026,-74.67536 -4.48052,4.48053 0,-7.46754 -4.48052,0 1.4935,4.48052 2.98702,-4.48052" />
    <path
       id="path3566"
       style="fill:#000000;fill-opacity:1;fill-rule:nonzero;stroke:none"
       d="m -249.64621,212.93042 -2.98702,-4.48052 -47.79222,0 0,7.46754 47.79222,0 -4.48052,-4.48053 7.46754,1.49351 1.4935,-4.48052 -4.48052,0 2.98702,4.48052" />
    <path
       id="path3568"
       style="fill:#000000;fill-opacity:1;fill-rule:nonzero;stroke:none"
       d="m -281.00986,287.60577 7.46753,0 23.89612,-74.67535 -7.46754,-1.49351 -23.89611,74.67536 7.46753,0 -7.46753,1.4935 4.48052,10.45455 2.98701,-10.45455 -7.46753,0" />
    <path
       id="path3570"
       style="fill:#000000;fill-opacity:1;fill-rule:evenodd;stroke:none"
       d="m -43.542241,286.11227 23.89611,-74.67536 -46.29872,0 22.40261,74.67536" />
    <path
       id="path3572"
       style="fill:#000000;fill-opacity:1;fill-rule:nonzero;stroke:none"
       d="m -19.646131,215.91744 -2.98701,-4.48053 -23.89611,74.67536 7.46753,1.4935 23.89611,-74.67535 -4.48052,-4.48052 4.48052,4.48052 0,-4.48052 -4.48052,0 0,7.46754" />
    <path
       id="path3574"
       style="fill:#000000;fill-opacity:1;fill-rule:nonzero;stroke:none"
       d="m -62.957831,211.43691 -2.98702,4.48053 46.29872,0 0,-7.46754 -46.29872,0 -4.48052,4.48052 4.48052,-4.48052 -4.48052,0 0,4.48052 7.46754,-1.49351" />
    <path
       id="path3576"
       style="fill:#000000;fill-opacity:1;fill-rule:nonzero;stroke:none"
       d="m -46.529251,286.11227 7.46753,0 -23.89611,-74.67536 -7.46754,1.49351 23.89612,74.67535 7.46753,0 -7.46753,0 2.98701,10.45455 4.48052,-10.45455 -7.46753,-1.4935" />
    <path
       id="path3578"
       style="fill:#000000;fill-opacity:1;fill-rule:evenodd;stroke:none"
       d="m -160.03579,511.63182 8.96104,-2.98701 7.46754,-4.48052 5.97403,-7.46754 1.4935,-10.45455 0,-74.67535 -1.4935,-10.45455 -5.97403,-7.46753 -7.46754,-4.48052 -8.96104,-2.98702 -10.45455,2.98702 -7.46753,4.48052 -5.97403,7.46753 -1.49351,10.45455 0,74.67535 1.49351,10.45455 5.97403,7.46754 7.46753,4.48052 10.45455,2.98701" />
    <path
       id="path3580"
       style="fill:#000000;fill-opacity:1;fill-rule:nonzero;stroke:none"
       d="m -160.03579,507.1513 0,7.46754 0,-7.46754" />
    <path
       id="path3582"
       style="fill:#000000;fill-opacity:1;fill-rule:nonzero;stroke:none"
       d="m -140.6202,486.2422 -1.49351,8.96105 -4.48052,5.97402 -5.97402,4.48053 -7.46754,1.4935 0,7.46754 10.45455,-1.49351 8.96104,-5.97403 5.97403,-10.45455 1.49351,-10.45455 -7.46754,0" />
    <path
       id="path3584"
       style="fill:#000000;fill-opacity:1;fill-rule:nonzero;stroke:none"
       d="m -140.6202,411.56685 0,74.67535 7.46754,0 0,-74.67535 -7.46754,0 z" />
    <path
       id="path3586"
       style="fill:#000000;fill-opacity:1;fill-rule:nonzero;stroke:none"
       d="m -160.03579,390.65775 7.46754,1.49351 5.97402,4.48052 4.48052,5.97403 1.49351,8.96104 7.46754,0 -1.49351,-10.45455 -5.97403,-10.45455 -8.96104,-5.97402 -10.45455,-1.49351 0,7.46753" />
    <path
       id="path3588"
       style="fill:#000000;fill-opacity:1;fill-rule:nonzero;stroke:none"
       d="m -160.03579,390.65775 0,-7.46753 0,7.46753" />
    <path
       id="path3590"
       style="fill:#000000;fill-opacity:1;fill-rule:nonzero;stroke:none"
       d="m -182.4384,411.56685 2.98702,-8.96104 4.48052,-5.97403 5.97403,-4.48052 8.96104,-1.49351 0,-7.46753 -10.45455,1.49351 -10.45455,5.97402 -5.97403,10.45455 -1.4935,10.45455 5.97402,0" />
    <path
       id="path3592"
       style="fill:#000000;fill-opacity:1;fill-rule:nonzero;stroke:none"
       d="m -188.41242,411.56685 0,74.67535 5.97402,0 0,-74.67535 -5.97402,0 z" />
    <path
       id="path3594"
       style="fill:#000000;fill-opacity:1;fill-rule:nonzero;stroke:none"
       d="m -160.03579,507.1513 -8.96104,-1.4935 -5.97403,-4.48053 -4.48052,-5.97402 -2.98702,-8.96105 -5.97402,0 1.4935,10.45455 5.97403,10.45455 10.45455,5.97403 10.45455,1.49351 0,-7.46754" />
    <path
       id="path3596"
       style="fill:#000000;fill-opacity:1;fill-rule:nonzero;stroke:none"
       d="m -160.03579,404.09932 8.96104,0 0,-56.75327 -17.92208,0 0,56.75327 8.96104,0" />
  </g>
</svg>
